<svg width="28" height="28" viewBox="0 0 28 28" fill="none" xmlns="http://www.w3.org/2000/svg">
<path d="M12.2291 23.0477C11.8982 23.3843 11.4472 23.5757 10.9753 23.5798C10.5034 23.5839 10.0491 23.4004 9.71244 23.0697L1.63349 15.1305C1.29692 14.7996 1.10553 14.3487 1.10141 13.8767C1.09729 13.4048 1.28078 12.9505 1.61153 12.6139L9.55069 4.53492C9.88353 4.20779 10.3315 4.02447 10.7982 4.02446C11.2649 4.02444 11.713 4.20772 12.0458 4.53483C12.3787 4.86194 12.5698 5.3067 12.5779 5.77332C12.586 6.23994 12.4105 6.69108 12.0893 7.02958L7.31476 12.0426L24.2228 11.895C24.6948 11.8909 25.1491 12.0745 25.4858 12.4053C25.8225 12.7362 26.014 13.1873 26.0181 13.6593C26.0222 14.1313 25.8386 14.5857 25.5078 14.9223C25.1769 15.259 24.7259 15.4505 24.2538 15.4546L7.34583 15.6022L12.2071 20.5311C12.5437 20.8619 12.7351 21.3129 12.7392 21.7848C12.7433 22.2568 12.5598 22.711 12.2291 23.0477Z" fill="white"/>
</svg>
